<mxfile host="app.diagrams.net" modified="2024-03-31T08:32:38.633Z" agent="Mozilla/5.0 (Macintosh; Intel Mac OS X 10_15_7) AppleWebKit/537.36 (KHTML, like Gecko) Chrome/120.0.0.0 Whale/3.24.223.18 Safari/537.36" etag="V6D5Qb2VzMD4WEFmODvb" version="24.2.1" type="github">
  <diagram name="페이지-1" id="t3tGC_7ZUbPhZwxjExYe">
    <mxGraphModel dx="194" dy="369" grid="1" gridSize="10" guides="1" tooltips="1" connect="1" arrows="1" fold="1" page="1" pageScale="1" pageWidth="1169" pageHeight="827" math="0" shadow="0">
      <root>
        <mxCell id="0" />
        <mxCell id="1" parent="0" />
        <mxCell id="pjavsnHLvcbqXYeomyV3-1" value="" style="childLayout=tableLayout;recursiveResize=0;shadow=0;fillColor=#f5f5f5;strokeColor=none;opacity=10;fontColor=#333333;" parent="1" vertex="1">
          <mxGeometry x="200" y="353" width="480" height="234" as="geometry" />
        </mxCell>
        <mxCell id="pjavsnHLvcbqXYeomyV3-2" value="" style="shape=tableRow;horizontal=0;startSize=0;swimlaneHead=0;swimlaneBody=0;top=0;left=0;bottom=0;right=0;dropTarget=0;collapsible=0;recursiveResize=0;expand=0;fontStyle=0;fillColor=none;strokeColor=inherit;opacity=0;" parent="pjavsnHLvcbqXYeomyV3-1" vertex="1">
          <mxGeometry width="480" height="47" as="geometry" />
        </mxCell>
        <mxCell id="pjavsnHLvcbqXYeomyV3-3" value="time" style="connectable=0;recursiveResize=0;strokeColor=inherit;fillColor=none;align=center;whiteSpace=wrap;html=1;opacity=30;" parent="pjavsnHLvcbqXYeomyV3-2" vertex="1">
          <mxGeometry width="60" height="47" as="geometry">
            <mxRectangle width="60" height="47" as="alternateBounds" />
          </mxGeometry>
        </mxCell>
        <mxCell id="pjavsnHLvcbqXYeomyV3-4" value="" style="connectable=0;recursiveResize=0;strokeColor=inherit;fillColor=none;align=center;whiteSpace=wrap;html=1;opacity=30;" parent="pjavsnHLvcbqXYeomyV3-2" vertex="1">
          <mxGeometry x="60" width="60" height="47" as="geometry">
            <mxRectangle width="60" height="47" as="alternateBounds" />
          </mxGeometry>
        </mxCell>
        <mxCell id="pjavsnHLvcbqXYeomyV3-5" value="" style="connectable=0;recursiveResize=0;strokeColor=inherit;fillColor=none;align=center;whiteSpace=wrap;html=1;opacity=30;" parent="pjavsnHLvcbqXYeomyV3-2" vertex="1">
          <mxGeometry x="120" width="60" height="47" as="geometry">
            <mxRectangle width="60" height="47" as="alternateBounds" />
          </mxGeometry>
        </mxCell>
        <mxCell id="pjavsnHLvcbqXYeomyV3-6" style="connectable=0;recursiveResize=0;strokeColor=inherit;fillColor=none;align=center;whiteSpace=wrap;html=1;opacity=30;" parent="pjavsnHLvcbqXYeomyV3-2" vertex="1">
          <mxGeometry x="180" width="60" height="47" as="geometry">
            <mxRectangle width="60" height="47" as="alternateBounds" />
          </mxGeometry>
        </mxCell>
        <mxCell id="pjavsnHLvcbqXYeomyV3-7" style="connectable=0;recursiveResize=0;strokeColor=inherit;fillColor=none;align=center;whiteSpace=wrap;html=1;opacity=30;" parent="pjavsnHLvcbqXYeomyV3-2" vertex="1">
          <mxGeometry x="240" width="60" height="47" as="geometry">
            <mxRectangle width="60" height="47" as="alternateBounds" />
          </mxGeometry>
        </mxCell>
        <mxCell id="pjavsnHLvcbqXYeomyV3-8" style="connectable=0;recursiveResize=0;strokeColor=inherit;fillColor=none;align=center;whiteSpace=wrap;html=1;opacity=30;" parent="pjavsnHLvcbqXYeomyV3-2" vertex="1">
          <mxGeometry x="300" width="60" height="47" as="geometry">
            <mxRectangle width="60" height="47" as="alternateBounds" />
          </mxGeometry>
        </mxCell>
        <mxCell id="Rt-W041NQO0ngFm-9UG5-1" style="connectable=0;recursiveResize=0;strokeColor=inherit;fillColor=none;align=center;whiteSpace=wrap;html=1;opacity=30;" vertex="1" parent="pjavsnHLvcbqXYeomyV3-2">
          <mxGeometry x="360" width="60" height="47" as="geometry">
            <mxRectangle width="60" height="47" as="alternateBounds" />
          </mxGeometry>
        </mxCell>
        <mxCell id="Rt-W041NQO0ngFm-9UG5-6" style="connectable=0;recursiveResize=0;strokeColor=inherit;fillColor=none;align=center;whiteSpace=wrap;html=1;opacity=30;" vertex="1" parent="pjavsnHLvcbqXYeomyV3-2">
          <mxGeometry x="420" width="60" height="47" as="geometry">
            <mxRectangle width="60" height="47" as="alternateBounds" />
          </mxGeometry>
        </mxCell>
        <mxCell id="pjavsnHLvcbqXYeomyV3-12" style="shape=tableRow;horizontal=0;startSize=0;swimlaneHead=0;swimlaneBody=0;top=0;left=0;bottom=0;right=0;dropTarget=0;collapsible=0;recursiveResize=0;expand=0;fontStyle=0;fillColor=none;strokeColor=default;opacity=30;" parent="pjavsnHLvcbqXYeomyV3-1" vertex="1">
          <mxGeometry y="47" width="480" height="46" as="geometry" />
        </mxCell>
        <mxCell id="pjavsnHLvcbqXYeomyV3-13" value="event" style="connectable=0;recursiveResize=0;strokeColor=inherit;fillColor=none;align=center;whiteSpace=wrap;html=1;opacity=30;" parent="pjavsnHLvcbqXYeomyV3-12" vertex="1">
          <mxGeometry width="60" height="46" as="geometry">
            <mxRectangle width="60" height="46" as="alternateBounds" />
          </mxGeometry>
        </mxCell>
        <mxCell id="pjavsnHLvcbqXYeomyV3-14" value="" style="connectable=0;recursiveResize=0;strokeColor=default;fillColor=none;align=center;whiteSpace=wrap;html=1;opacity=30;" parent="pjavsnHLvcbqXYeomyV3-12" vertex="1">
          <mxGeometry x="60" width="60" height="46" as="geometry">
            <mxRectangle width="60" height="46" as="alternateBounds" />
          </mxGeometry>
        </mxCell>
        <mxCell id="pjavsnHLvcbqXYeomyV3-15" value="" style="connectable=0;recursiveResize=0;strokeColor=default;fillColor=none;align=center;whiteSpace=wrap;html=1;opacity=30;" parent="pjavsnHLvcbqXYeomyV3-12" vertex="1">
          <mxGeometry x="120" width="60" height="46" as="geometry">
            <mxRectangle width="60" height="46" as="alternateBounds" />
          </mxGeometry>
        </mxCell>
        <mxCell id="pjavsnHLvcbqXYeomyV3-16" style="connectable=0;recursiveResize=0;strokeColor=default;fillColor=none;align=center;whiteSpace=wrap;html=1;opacity=30;" parent="pjavsnHLvcbqXYeomyV3-12" vertex="1">
          <mxGeometry x="180" width="60" height="46" as="geometry">
            <mxRectangle width="60" height="46" as="alternateBounds" />
          </mxGeometry>
        </mxCell>
        <mxCell id="pjavsnHLvcbqXYeomyV3-17" style="connectable=0;recursiveResize=0;strokeColor=default;fillColor=none;align=center;whiteSpace=wrap;html=1;opacity=30;" parent="pjavsnHLvcbqXYeomyV3-12" vertex="1">
          <mxGeometry x="240" width="60" height="46" as="geometry">
            <mxRectangle width="60" height="46" as="alternateBounds" />
          </mxGeometry>
        </mxCell>
        <mxCell id="pjavsnHLvcbqXYeomyV3-18" style="connectable=0;recursiveResize=0;strokeColor=default;fillColor=none;align=center;whiteSpace=wrap;html=1;opacity=30;" parent="pjavsnHLvcbqXYeomyV3-12" vertex="1">
          <mxGeometry x="300" width="60" height="46" as="geometry">
            <mxRectangle width="60" height="46" as="alternateBounds" />
          </mxGeometry>
        </mxCell>
        <mxCell id="Rt-W041NQO0ngFm-9UG5-2" style="connectable=0;recursiveResize=0;strokeColor=default;fillColor=none;align=center;whiteSpace=wrap;html=1;opacity=30;" vertex="1" parent="pjavsnHLvcbqXYeomyV3-12">
          <mxGeometry x="360" width="60" height="46" as="geometry">
            <mxRectangle width="60" height="46" as="alternateBounds" />
          </mxGeometry>
        </mxCell>
        <mxCell id="Rt-W041NQO0ngFm-9UG5-7" style="connectable=0;recursiveResize=0;strokeColor=default;fillColor=none;align=center;whiteSpace=wrap;html=1;opacity=30;" vertex="1" parent="pjavsnHLvcbqXYeomyV3-12">
          <mxGeometry x="420" width="60" height="46" as="geometry">
            <mxRectangle width="60" height="46" as="alternateBounds" />
          </mxGeometry>
        </mxCell>
        <mxCell id="pjavsnHLvcbqXYeomyV3-22" style="shape=tableRow;horizontal=0;startSize=0;swimlaneHead=0;swimlaneBody=0;top=0;left=0;bottom=0;right=0;dropTarget=0;collapsible=0;recursiveResize=0;expand=0;fontStyle=0;fillColor=none;strokeColor=default;opacity=30;" parent="pjavsnHLvcbqXYeomyV3-1" vertex="1">
          <mxGeometry y="93" width="480" height="47" as="geometry" />
        </mxCell>
        <mxCell id="pjavsnHLvcbqXYeomyV3-23" value="window" style="connectable=0;recursiveResize=0;strokeColor=inherit;fillColor=none;align=center;whiteSpace=wrap;html=1;opacity=30;rowspan=3;colspan=1;" parent="pjavsnHLvcbqXYeomyV3-22" vertex="1">
          <mxGeometry width="60" height="141" as="geometry">
            <mxRectangle width="60" height="47" as="alternateBounds" />
          </mxGeometry>
        </mxCell>
        <mxCell id="pjavsnHLvcbqXYeomyV3-24" value="" style="connectable=0;recursiveResize=0;strokeColor=default;fillColor=none;align=center;whiteSpace=wrap;html=1;opacity=30;rowspan=3;colspan=1;" parent="pjavsnHLvcbqXYeomyV3-22" vertex="1">
          <mxGeometry x="60" width="60" height="141" as="geometry">
            <mxRectangle width="60" height="47" as="alternateBounds" />
          </mxGeometry>
        </mxCell>
        <mxCell id="pjavsnHLvcbqXYeomyV3-25" value="" style="connectable=0;recursiveResize=0;strokeColor=default;fillColor=none;align=center;whiteSpace=wrap;html=1;opacity=30;rowspan=3;colspan=1;" parent="pjavsnHLvcbqXYeomyV3-22" vertex="1">
          <mxGeometry x="120" width="60" height="141" as="geometry">
            <mxRectangle width="60" height="47" as="alternateBounds" />
          </mxGeometry>
        </mxCell>
        <mxCell id="pjavsnHLvcbqXYeomyV3-26" style="connectable=0;recursiveResize=0;strokeColor=default;fillColor=none;align=center;whiteSpace=wrap;html=1;opacity=30;rowspan=3;colspan=1;" parent="pjavsnHLvcbqXYeomyV3-22" vertex="1">
          <mxGeometry x="180" width="60" height="141" as="geometry">
            <mxRectangle width="60" height="47" as="alternateBounds" />
          </mxGeometry>
        </mxCell>
        <mxCell id="pjavsnHLvcbqXYeomyV3-27" style="connectable=0;recursiveResize=0;strokeColor=default;fillColor=none;align=center;whiteSpace=wrap;html=1;opacity=30;rowspan=3;colspan=1;" parent="pjavsnHLvcbqXYeomyV3-22" vertex="1">
          <mxGeometry x="240" width="60" height="141" as="geometry">
            <mxRectangle width="60" height="47" as="alternateBounds" />
          </mxGeometry>
        </mxCell>
        <mxCell id="pjavsnHLvcbqXYeomyV3-28" style="connectable=0;recursiveResize=0;strokeColor=default;fillColor=none;align=center;whiteSpace=wrap;html=1;opacity=30;rowspan=3;colspan=1;" parent="pjavsnHLvcbqXYeomyV3-22" vertex="1">
          <mxGeometry x="300" width="60" height="141" as="geometry">
            <mxRectangle width="60" height="47" as="alternateBounds" />
          </mxGeometry>
        </mxCell>
        <mxCell id="Rt-W041NQO0ngFm-9UG5-3" style="connectable=0;recursiveResize=0;strokeColor=default;fillColor=none;align=center;whiteSpace=wrap;html=1;opacity=30;rowspan=3;colspan=1;" vertex="1" parent="pjavsnHLvcbqXYeomyV3-22">
          <mxGeometry x="360" width="60" height="141" as="geometry">
            <mxRectangle width="60" height="47" as="alternateBounds" />
          </mxGeometry>
        </mxCell>
        <mxCell id="Rt-W041NQO0ngFm-9UG5-8" style="connectable=0;recursiveResize=0;strokeColor=default;fillColor=none;align=center;whiteSpace=wrap;html=1;opacity=30;rowspan=3;colspan=1;" vertex="1" parent="pjavsnHLvcbqXYeomyV3-22">
          <mxGeometry x="420" width="60" height="141" as="geometry">
            <mxRectangle width="60" height="47" as="alternateBounds" />
          </mxGeometry>
        </mxCell>
        <mxCell id="pjavsnHLvcbqXYeomyV3-32" style="shape=tableRow;horizontal=0;startSize=0;swimlaneHead=0;swimlaneBody=0;top=0;left=0;bottom=0;right=0;dropTarget=0;collapsible=0;recursiveResize=0;expand=0;fontStyle=0;fillColor=none;strokeColor=default;opacity=30;" parent="pjavsnHLvcbqXYeomyV3-1" vertex="1">
          <mxGeometry y="140" width="480" height="47" as="geometry" />
        </mxCell>
        <mxCell id="pjavsnHLvcbqXYeomyV3-33" style="connectable=0;recursiveResize=0;strokeColor=inherit;fillColor=none;align=center;whiteSpace=wrap;html=1;opacity=30;" parent="pjavsnHLvcbqXYeomyV3-32" vertex="1" visible="0">
          <mxGeometry width="60" height="47" as="geometry">
            <mxRectangle width="60" height="47" as="alternateBounds" />
          </mxGeometry>
        </mxCell>
        <mxCell id="pjavsnHLvcbqXYeomyV3-34" style="connectable=0;recursiveResize=0;strokeColor=default;fillColor=none;align=center;whiteSpace=wrap;html=1;opacity=30;" parent="pjavsnHLvcbqXYeomyV3-32" vertex="1" visible="0">
          <mxGeometry x="60" width="60" height="47" as="geometry">
            <mxRectangle width="60" height="47" as="alternateBounds" />
          </mxGeometry>
        </mxCell>
        <mxCell id="pjavsnHLvcbqXYeomyV3-35" style="connectable=0;recursiveResize=0;strokeColor=default;fillColor=none;align=center;whiteSpace=wrap;html=1;opacity=30;" parent="pjavsnHLvcbqXYeomyV3-32" vertex="1" visible="0">
          <mxGeometry x="120" width="60" height="47" as="geometry">
            <mxRectangle width="60" height="47" as="alternateBounds" />
          </mxGeometry>
        </mxCell>
        <mxCell id="pjavsnHLvcbqXYeomyV3-36" style="connectable=0;recursiveResize=0;strokeColor=default;fillColor=none;align=center;whiteSpace=wrap;html=1;opacity=30;" parent="pjavsnHLvcbqXYeomyV3-32" vertex="1" visible="0">
          <mxGeometry x="180" width="60" height="47" as="geometry">
            <mxRectangle width="60" height="47" as="alternateBounds" />
          </mxGeometry>
        </mxCell>
        <mxCell id="pjavsnHLvcbqXYeomyV3-37" style="connectable=0;recursiveResize=0;strokeColor=default;fillColor=none;align=center;whiteSpace=wrap;html=1;opacity=30;" parent="pjavsnHLvcbqXYeomyV3-32" vertex="1" visible="0">
          <mxGeometry x="240" width="60" height="47" as="geometry">
            <mxRectangle width="60" height="47" as="alternateBounds" />
          </mxGeometry>
        </mxCell>
        <mxCell id="pjavsnHLvcbqXYeomyV3-38" style="connectable=0;recursiveResize=0;strokeColor=default;fillColor=none;align=center;whiteSpace=wrap;html=1;opacity=30;" parent="pjavsnHLvcbqXYeomyV3-32" vertex="1" visible="0">
          <mxGeometry x="300" width="60" height="47" as="geometry">
            <mxRectangle width="60" height="47" as="alternateBounds" />
          </mxGeometry>
        </mxCell>
        <mxCell id="Rt-W041NQO0ngFm-9UG5-4" style="connectable=0;recursiveResize=0;strokeColor=default;fillColor=none;align=center;whiteSpace=wrap;html=1;opacity=30;" vertex="1" visible="0" parent="pjavsnHLvcbqXYeomyV3-32">
          <mxGeometry x="360" width="60" height="47" as="geometry">
            <mxRectangle width="60" height="47" as="alternateBounds" />
          </mxGeometry>
        </mxCell>
        <mxCell id="Rt-W041NQO0ngFm-9UG5-9" style="connectable=0;recursiveResize=0;strokeColor=default;fillColor=none;align=center;whiteSpace=wrap;html=1;opacity=30;" vertex="1" visible="0" parent="pjavsnHLvcbqXYeomyV3-32">
          <mxGeometry x="420" width="60" height="47" as="geometry">
            <mxRectangle width="60" height="47" as="alternateBounds" />
          </mxGeometry>
        </mxCell>
        <mxCell id="pjavsnHLvcbqXYeomyV3-42" style="shape=tableRow;horizontal=0;startSize=0;swimlaneHead=0;swimlaneBody=0;top=0;left=0;bottom=0;right=0;dropTarget=0;collapsible=0;recursiveResize=0;expand=0;fontStyle=0;fillColor=none;strokeColor=default;opacity=30;" parent="pjavsnHLvcbqXYeomyV3-1" vertex="1">
          <mxGeometry y="187" width="480" height="47" as="geometry" />
        </mxCell>
        <mxCell id="pjavsnHLvcbqXYeomyV3-43" style="connectable=0;recursiveResize=0;strokeColor=inherit;fillColor=none;align=center;whiteSpace=wrap;html=1;opacity=30;" parent="pjavsnHLvcbqXYeomyV3-42" vertex="1" visible="0">
          <mxGeometry width="60" height="47" as="geometry">
            <mxRectangle width="60" height="47" as="alternateBounds" />
          </mxGeometry>
        </mxCell>
        <mxCell id="pjavsnHLvcbqXYeomyV3-44" style="connectable=0;recursiveResize=0;strokeColor=default;fillColor=none;align=center;whiteSpace=wrap;html=1;opacity=30;" parent="pjavsnHLvcbqXYeomyV3-42" vertex="1" visible="0">
          <mxGeometry x="60" width="60" height="47" as="geometry">
            <mxRectangle width="60" height="47" as="alternateBounds" />
          </mxGeometry>
        </mxCell>
        <mxCell id="pjavsnHLvcbqXYeomyV3-45" style="connectable=0;recursiveResize=0;strokeColor=default;fillColor=none;align=center;whiteSpace=wrap;html=1;opacity=30;" parent="pjavsnHLvcbqXYeomyV3-42" vertex="1" visible="0">
          <mxGeometry x="120" width="60" height="47" as="geometry">
            <mxRectangle width="60" height="47" as="alternateBounds" />
          </mxGeometry>
        </mxCell>
        <mxCell id="pjavsnHLvcbqXYeomyV3-46" style="connectable=0;recursiveResize=0;strokeColor=default;fillColor=none;align=center;whiteSpace=wrap;html=1;opacity=30;" parent="pjavsnHLvcbqXYeomyV3-42" vertex="1" visible="0">
          <mxGeometry x="180" width="60" height="47" as="geometry">
            <mxRectangle width="60" height="47" as="alternateBounds" />
          </mxGeometry>
        </mxCell>
        <mxCell id="pjavsnHLvcbqXYeomyV3-47" style="connectable=0;recursiveResize=0;strokeColor=default;fillColor=none;align=center;whiteSpace=wrap;html=1;opacity=30;" parent="pjavsnHLvcbqXYeomyV3-42" vertex="1" visible="0">
          <mxGeometry x="240" width="60" height="47" as="geometry">
            <mxRectangle width="60" height="47" as="alternateBounds" />
          </mxGeometry>
        </mxCell>
        <mxCell id="pjavsnHLvcbqXYeomyV3-48" style="connectable=0;recursiveResize=0;strokeColor=default;fillColor=none;align=center;whiteSpace=wrap;html=1;opacity=30;" parent="pjavsnHLvcbqXYeomyV3-42" vertex="1" visible="0">
          <mxGeometry x="300" width="60" height="47" as="geometry">
            <mxRectangle width="60" height="47" as="alternateBounds" />
          </mxGeometry>
        </mxCell>
        <mxCell id="Rt-W041NQO0ngFm-9UG5-5" style="connectable=0;recursiveResize=0;strokeColor=default;fillColor=none;align=center;whiteSpace=wrap;html=1;opacity=30;" vertex="1" visible="0" parent="pjavsnHLvcbqXYeomyV3-42">
          <mxGeometry x="360" width="60" height="47" as="geometry">
            <mxRectangle width="60" height="47" as="alternateBounds" />
          </mxGeometry>
        </mxCell>
        <mxCell id="Rt-W041NQO0ngFm-9UG5-10" style="connectable=0;recursiveResize=0;strokeColor=default;fillColor=none;align=center;whiteSpace=wrap;html=1;opacity=30;" vertex="1" visible="0" parent="pjavsnHLvcbqXYeomyV3-42">
          <mxGeometry x="420" width="60" height="47" as="geometry">
            <mxRectangle width="60" height="47" as="alternateBounds" />
          </mxGeometry>
        </mxCell>
        <mxCell id="pjavsnHLvcbqXYeomyV3-52" value="t10" style="text;html=1;align=center;verticalAlign=middle;whiteSpace=wrap;rounded=0;opacity=30;strokeColor=none;" parent="1" vertex="1">
          <mxGeometry x="280" y="370" width="60" height="30" as="geometry" />
        </mxCell>
        <mxCell id="pjavsnHLvcbqXYeomyV3-53" value="t20" style="text;html=1;align=center;verticalAlign=middle;whiteSpace=wrap;rounded=0;opacity=30;strokeColor=none;" parent="1" vertex="1">
          <mxGeometry x="340" y="370" width="60" height="30" as="geometry" />
        </mxCell>
        <mxCell id="pjavsnHLvcbqXYeomyV3-54" value="t30" style="text;html=1;align=center;verticalAlign=middle;whiteSpace=wrap;rounded=0;opacity=30;strokeColor=none;" parent="1" vertex="1">
          <mxGeometry x="400" y="370" width="60" height="30" as="geometry" />
        </mxCell>
        <mxCell id="pjavsnHLvcbqXYeomyV3-55" value="t40" style="text;html=1;align=center;verticalAlign=middle;whiteSpace=wrap;rounded=0;opacity=30;strokeColor=none;" parent="1" vertex="1">
          <mxGeometry x="460" y="370" width="60" height="30" as="geometry" />
        </mxCell>
        <mxCell id="pjavsnHLvcbqXYeomyV3-58" value="a" style="ellipse;whiteSpace=wrap;html=1;fillColor=#97D077;strokeColor=none;" parent="1" vertex="1">
          <mxGeometry x="303" y="420" width="25" height="20" as="geometry" />
        </mxCell>
        <mxCell id="pjavsnHLvcbqXYeomyV3-61" value="" style="shape=crossbar;whiteSpace=wrap;html=1;rounded=1;strokeWidth=3;fillColor=#dae8fc;strokeColor=#6c8ebf;" parent="1" vertex="1">
          <mxGeometry x="314" y="460" width="146" height="20" as="geometry" />
        </mxCell>
        <mxCell id="pjavsnHLvcbqXYeomyV3-62" value="w1" style="text;html=1;align=center;verticalAlign=middle;whiteSpace=wrap;rounded=0;" parent="1" vertex="1">
          <mxGeometry x="357.5" y="450" width="60" height="30" as="geometry" />
        </mxCell>
        <mxCell id="pjavsnHLvcbqXYeomyV3-63" value="" style="shape=crossbar;whiteSpace=wrap;html=1;rounded=1;strokeWidth=3;fillColor=#dae8fc;strokeColor=#6c8ebf;" parent="1" vertex="1">
          <mxGeometry x="465" y="490" width="75" height="20" as="geometry" />
        </mxCell>
        <mxCell id="pjavsnHLvcbqXYeomyV3-78" value="" style="shape=crossbar;whiteSpace=wrap;html=1;rounded=1;strokeWidth=3;fillColor=#dae8fc;strokeColor=#6c8ebf;" parent="1" vertex="1">
          <mxGeometry x="550" y="530" width="120" height="20" as="geometry" />
        </mxCell>
        <mxCell id="Rt-W041NQO0ngFm-9UG5-11" value="t50" style="text;html=1;align=center;verticalAlign=middle;whiteSpace=wrap;rounded=0;opacity=30;strokeColor=none;" vertex="1" parent="1">
          <mxGeometry x="520" y="370" width="60" height="30" as="geometry" />
        </mxCell>
        <mxCell id="Rt-W041NQO0ngFm-9UG5-12" value="t60" style="text;html=1;align=center;verticalAlign=middle;whiteSpace=wrap;rounded=0;opacity=30;strokeColor=none;" vertex="1" parent="1">
          <mxGeometry x="580" y="370" width="60" height="30" as="geometry" />
        </mxCell>
        <mxCell id="Rt-W041NQO0ngFm-9UG5-13" value="b" style="ellipse;whiteSpace=wrap;html=1;fillColor=#97D077;strokeColor=none;" vertex="1" parent="1">
          <mxGeometry x="327.5" y="420" width="25" height="20" as="geometry" />
        </mxCell>
        <mxCell id="Rt-W041NQO0ngFm-9UG5-14" value="c" style="ellipse;whiteSpace=wrap;html=1;fillColor=#97D077;strokeColor=none;" vertex="1" parent="1">
          <mxGeometry x="357.5" y="420" width="25" height="20" as="geometry" />
        </mxCell>
        <mxCell id="Rt-W041NQO0ngFm-9UG5-15" value="d" style="ellipse;whiteSpace=wrap;html=1;fillColor=#97D077;strokeColor=none;" vertex="1" parent="1">
          <mxGeometry x="387.5" y="420" width="25" height="20" as="geometry" />
        </mxCell>
        <mxCell id="Rt-W041NQO0ngFm-9UG5-16" value="e" style="ellipse;whiteSpace=wrap;html=1;fillColor=#97D077;strokeColor=none;" vertex="1" parent="1">
          <mxGeometry x="454" y="420" width="25" height="20" as="geometry" />
        </mxCell>
        <mxCell id="Rt-W041NQO0ngFm-9UG5-17" value="f" style="ellipse;whiteSpace=wrap;html=1;fillColor=#97D077;strokeColor=none;" vertex="1" parent="1">
          <mxGeometry x="537.5" y="420" width="25" height="20" as="geometry" />
        </mxCell>
        <mxCell id="Rt-W041NQO0ngFm-9UG5-18" value="g" style="ellipse;whiteSpace=wrap;html=1;fillColor=#97D077;strokeColor=none;" vertex="1" parent="1">
          <mxGeometry x="593" y="420" width="25" height="20" as="geometry" />
        </mxCell>
        <mxCell id="Rt-W041NQO0ngFm-9UG5-19" value="w2" style="text;html=1;align=center;verticalAlign=middle;whiteSpace=wrap;rounded=0;" vertex="1" parent="1">
          <mxGeometry x="480" y="480" width="60" height="30" as="geometry" />
        </mxCell>
        <mxCell id="Rt-W041NQO0ngFm-9UG5-20" value="w3" style="text;html=1;align=center;verticalAlign=middle;whiteSpace=wrap;rounded=0;" vertex="1" parent="1">
          <mxGeometry x="582" y="520" width="60" height="30" as="geometry" />
        </mxCell>
      </root>
    </mxGraphModel>
  </diagram>
</mxfile>
